<?xml version="1.0" encoding="UTF-8"?><svg xmlns="http://www.w3.org/2000/svg" xmlns:xlink="http://www.w3.org/1999/xlink" fill-opacity="1" color-rendering="auto" color-interpolation="auto" text-rendering="auto" stroke="black" stroke-linecap="square" width="457" stroke-miterlimit="10" shape-rendering="auto" stroke-opacity="1" fill="black" stroke-dasharray="none" font-weight="normal" stroke-width="1" height="292" font-family="'Dialog'" font-style="normal" stroke-linejoin="miter" font-size="12px" stroke-dashoffset="0" image-rendering="auto">
  <!--Generated by ySVG 2.5-->
  <defs id="genericDefs"/>
  <g>
    <defs id="defs1">
      <linearGradient x1="488.2928" gradientUnits="userSpaceOnUse" x2="625.7072" y1="242.579" y2="306" id="linearGradient1" spreadMethod="reflect">
        <stop stop-opacity="1" stop-color="rgb(232,238,247)" offset="0%"/>
        <stop stop-opacity="1" stop-color="rgb(183,201,227)" offset="100%"/>
      </linearGradient>
      <linearGradient x1="512.5" gradientUnits="userSpaceOnUse" x2="601.5" y1="347.2895" y2="399" id="linearGradient2" spreadMethod="reflect">
        <stop stop-opacity="1" stop-color="rgb(232,238,247)" offset="0%"/>
        <stop stop-opacity="1" stop-color="rgb(153,204,0)" offset="100%"/>
      </linearGradient>
      <linearGradient x1="488.2928" gradientUnits="userSpaceOnUse" x2="625.7072" y1="440.2895" y2="503.7105" id="linearGradient3" spreadMethod="reflect">
        <stop stop-opacity="1" stop-color="rgb(232,238,247)" offset="0%"/>
        <stop stop-opacity="1" stop-color="rgb(183,201,227)" offset="100%"/>
      </linearGradient>
      <linearGradient x1="777.2928" gradientUnits="userSpaceOnUse" x2="914.7072" y1="440.2895" y2="503.7105" id="linearGradient4" spreadMethod="reflect">
        <stop stop-opacity="1" stop-color="rgb(232,238,247)" offset="0%"/>
        <stop stop-opacity="1" stop-color="rgb(183,201,227)" offset="100%"/>
      </linearGradient>
      <linearGradient x1="801.5" gradientUnits="userSpaceOnUse" x2="890.5" y1="347.2895" y2="399" id="linearGradient5" spreadMethod="reflect">
        <stop stop-opacity="1" stop-color="rgb(232,238,247)" offset="0%"/>
        <stop stop-opacity="1" stop-color="rgb(153,204,0)" offset="100%"/>
      </linearGradient>
      <linearGradient x1="657" gradientUnits="userSpaceOnUse" x2="746" y1="446.1447" y2="497.8553" id="linearGradient6" spreadMethod="reflect">
        <stop stop-opacity="1" stop-color="rgb(232,238,247)" offset="0%"/>
        <stop stop-opacity="1" stop-color="rgb(255,204,0)" offset="100%"/>
      </linearGradient>
      <clipPath clipPathUnits="userSpaceOnUse" id="clipPath1">
        <path d="M0 0 L457 0 L457 292 L0 292 L0 0 Z"/>
      </clipPath>
      <clipPath clipPathUnits="userSpaceOnUse" id="clipPath2">
        <path d="M473 227 L930 227 L930 519 L473 519 L473 227 Z"/>
      </clipPath>
      <clipPath clipPathUnits="userSpaceOnUse" id="clipPath3">
        <path d="M490.2928 265.7426 L490.2928 282.8364 L623.7072 282.8364 L623.7072 265.7426 Z"/>
      </clipPath>
      <clipPath clipPathUnits="userSpaceOnUse" id="clipPath4">
        <path d="M490.2928 463.4531 L490.2928 480.5469 L623.7072 480.5469 L623.7072 463.4531 Z"/>
      </clipPath>
      <clipPath clipPathUnits="userSpaceOnUse" id="clipPath5">
        <path d="M779.2928 463.4531 L779.2928 480.5469 L912.7072 480.5469 L912.7072 463.4531 Z"/>
      </clipPath>
    </defs>
    <g fill="white" text-rendering="geometricPrecision" shape-rendering="geometricPrecision" transform="translate(-473,-227)" stroke="white">
      <rect x="473" width="457" height="292" y="227" clip-path="url(#clipPath2)" stroke="none"/>
    </g>
    <g fill="url(#linearGradient1)" text-rendering="geometricPrecision" shape-rendering="geometricPrecision" transform="matrix(1,0,0,1,-473,-227)" stroke="url(#linearGradient1)">
      <path d="M488.2928 242.579 L625.7072 242.579 L625.7072 306 L488.2928 306 Z" stroke="none" clip-path="url(#clipPath2)"/>
    </g>
    <g text-rendering="geometricPrecision" stroke-miterlimit="1.45" shape-rendering="geometricPrecision" transform="matrix(1,0,0,1,-473,-227)" stroke-linecap="butt">
      <path fill="none" d="M488.2928 242.579 L625.7072 242.579 L625.7072 306 L488.2928 306 Z" clip-path="url(#clipPath2)"/>
      <path stroke-miterlimit="10" d="M528.5391 280.1977 L530.3359 271.5883 L531.3203 271.5883 L531.1328 272.4477 Q531.6797 271.8852 532.1016 271.6665 Q532.5391 271.4477 533.0234 271.4477 Q533.9141 271.4477 534.4922 272.104 Q535.0859 272.7446 535.0859 273.9477 Q535.0859 274.9165 534.7578 275.7133 Q534.4453 276.5102 533.9766 277.0102 Q533.5078 277.4946 533.0234 277.729 Q532.5391 277.9477 532.0391 277.9477 Q530.9141 277.9477 530.3047 276.8071 L529.6016 280.1977 L528.5391 280.1977 ZM530.6328 275.2602 Q530.6328 275.9633 530.7422 276.229 Q530.8828 276.604 531.2109 276.8383 Q531.5547 277.0727 531.9922 277.0727 Q532.9141 277.0727 533.4766 276.0571 Q534.0391 275.0258 534.0391 273.9477 Q534.0391 273.1665 533.6484 272.729 Q533.2734 272.2915 532.7109 272.2915 Q532.3047 272.2915 531.9609 272.5102 Q531.6172 272.729 531.3203 273.1508 Q531.0234 273.5727 530.8203 274.1977 Q530.6328 274.8071 530.6328 275.2602 ZM535.7441 277.8071 L537.041 271.5883 L537.9785 271.5883 L537.7129 272.854 Q538.1973 272.1352 538.6504 271.7915 Q539.1191 271.4477 539.5879 271.4477 Q539.916 271.4477 540.3691 271.6665 L539.9316 272.6508 Q539.666 272.4633 539.3379 272.4633 Q538.7754 272.4633 538.1816 273.0883 Q537.6035 273.6977 537.2754 275.3071 L536.7441 277.8071 L535.7441 277.8071 ZM544.3027 275.6977 L545.334 275.7915 Q545.1152 276.5571 544.3027 277.2602 Q543.5059 277.9477 542.4121 277.9477 Q541.709 277.9477 541.1309 277.6352 Q540.5527 277.3071 540.2559 276.6977 Q539.959 276.0883 539.959 275.3071 Q539.959 274.2915 540.4277 273.3383 Q540.8965 272.3696 541.6465 271.9165 Q542.3965 271.4477 543.2715 271.4477 Q544.3809 271.4477 545.0371 272.1352 Q545.709 272.8227 545.709 274.0258 Q545.709 274.479 545.6309 274.9633 L541.0527 274.9633 Q541.0215 275.1352 541.0215 275.2915 Q541.0215 276.1665 541.4277 276.6196 Q541.834 277.0727 542.4121 277.0727 Q542.959 277.0727 543.4746 276.729 Q544.0059 276.3696 544.3027 275.6977 ZM541.2246 274.1508 L544.709 274.1508 Q544.7246 273.979 544.7246 273.9165 Q544.7246 273.1196 544.3184 272.6977 Q543.9277 272.2758 543.3027 272.2758 Q542.6152 272.2758 542.0527 272.7446 Q541.4902 273.2133 541.2246 274.1508 ZM546.3984 277.8071 L547.6953 271.5883 L548.7578 271.5883 L548.5391 272.604 Q549.1328 271.9477 549.6016 271.6977 Q550.0703 271.4477 550.6172 271.4477 Q551.1953 271.4477 551.5859 271.7602 Q551.9766 272.0571 552.1016 272.604 Q552.5703 272.0258 553.0859 271.7446 Q553.6172 271.4477 554.1953 271.4477 Q554.9766 271.4477 555.3672 271.8227 Q555.7578 272.1821 555.7578 272.854 Q555.7578 273.1352 555.6172 273.7915 L554.7891 277.8071 L553.7266 277.8071 L554.5859 273.6977 Q554.6953 273.1821 554.6953 272.979 Q554.6953 272.6665 554.4922 272.4946 Q554.3047 272.3227 553.9609 272.3227 Q553.4766 272.3227 552.9766 272.604 Q552.4922 272.8852 552.2109 273.354 Q551.9453 273.8227 551.7422 274.7915 L551.1172 277.8071 L550.0547 277.8071 L550.9297 273.604 Q551.0234 273.1821 551.0234 272.9946 Q551.0234 272.6977 550.8359 272.5102 Q550.6484 272.3227 550.3359 272.3227 Q549.8828 272.3227 549.3828 272.604 Q548.8984 272.8852 548.5859 273.4008 Q548.2734 273.9165 548.0703 274.8696 L547.4609 277.8071 L546.3984 277.8071 ZM557.9102 270.4165 L558.1602 269.2133 L559.2227 269.2133 L558.957 270.4165 L557.9102 270.4165 ZM556.3633 277.8071 L557.6602 271.5883 L558.7227 271.5883 L557.4258 277.8071 L556.3633 277.8071 ZM559.1699 275.6821 L560.2324 275.6196 Q560.2324 276.0727 560.373 276.4008 Q560.5137 276.7133 560.8887 276.9165 Q561.2637 277.1196 561.7637 277.1196 Q562.4668 277.1196 562.8105 276.8383 Q563.1699 276.5571 563.1699 276.1821 Q563.1699 275.9008 562.9668 275.6665 Q562.748 275.4165 561.9043 275.0571 Q561.0605 274.6977 560.8262 274.5415 Q560.4355 274.3071 560.2324 273.979 Q560.0449 273.6508 560.0449 273.229 Q560.0449 272.4946 560.623 271.979 Q561.2168 271.4477 562.2637 271.4477 Q563.4355 271.4477 564.0449 271.9946 Q564.6699 272.5258 564.6855 273.4165 L563.6543 273.479 Q563.623 272.9165 563.248 272.5883 Q562.873 272.2602 562.1855 272.2602 Q561.6387 272.2602 561.3262 272.5102 Q561.0293 272.7602 561.0293 273.0571 Q561.0293 273.354 561.2949 273.5727 Q561.4668 273.729 562.2012 274.0415 Q563.4199 274.5727 563.7324 274.8696 Q564.248 275.3696 564.248 276.0571 Q564.248 276.5258 563.9512 276.979 Q563.6699 277.4165 563.0918 277.6821 Q562.5137 277.9477 561.7168 277.9477 Q560.6387 277.9477 559.8887 277.4165 Q559.123 276.8852 559.1699 275.6821 ZM569.6387 275.6977 L570.6699 275.7915 Q570.4512 276.5571 569.6387 277.2602 Q568.8418 277.9477 567.748 277.9477 Q567.0449 277.9477 566.4668 277.6352 Q565.8887 277.3071 565.5918 276.6977 Q565.2949 276.0883 565.2949 275.3071 Q565.2949 274.2915 565.7637 273.3383 Q566.2324 272.3696 566.9824 271.9165 Q567.7324 271.4477 568.6074 271.4477 Q569.7168 271.4477 570.373 272.1352 Q571.0449 272.8227 571.0449 274.0258 Q571.0449 274.479 570.9668 274.9633 L566.3887 274.9633 Q566.3574 275.1352 566.3574 275.2915 Q566.3574 276.1665 566.7637 276.6196 Q567.1699 277.0727 567.748 277.0727 Q568.2949 277.0727 568.8105 276.729 Q569.3418 276.3696 569.6387 275.6977 ZM566.5605 274.1508 L570.0449 274.1508 Q570.0605 273.979 570.0605 273.9165 Q570.0605 273.1196 569.6543 272.6977 Q569.2637 272.2758 568.6387 272.2758 Q567.9512 272.2758 567.3887 272.7446 Q566.8262 273.2133 566.5605 274.1508 ZM573.2812 280.3383 Q572.3594 278.3227 572.3594 276.1821 Q572.3594 274.7758 572.7344 273.5571 Q573.1094 272.3227 573.8594 271.1352 Q574.375 270.3383 575.4688 269.0727 L576.2969 269.0727 Q575.6094 269.8071 574.8438 271.1352 Q574.0938 272.4633 573.7344 273.7446 Q573.3906 275.0258 573.3906 276.3227 Q573.3906 278.2602 574.0625 280.3383 L573.2812 280.3383 ZM575.8398 275.6821 L576.9023 275.6196 Q576.9023 276.0727 577.043 276.4008 Q577.1836 276.7133 577.5586 276.9165 Q577.9336 277.1196 578.4336 277.1196 Q579.1367 277.1196 579.4805 276.8383 Q579.8398 276.5571 579.8398 276.1821 Q579.8398 275.9008 579.6367 275.6665 Q579.418 275.4165 578.5742 275.0571 Q577.7305 274.6977 577.4961 274.5415 Q577.1055 274.3071 576.9023 273.979 Q576.7148 273.6508 576.7148 273.229 Q576.7148 272.4946 577.293 271.979 Q577.8867 271.4477 578.9336 271.4477 Q580.1055 271.4477 580.7148 271.9946 Q581.3398 272.5258 581.3555 273.4165 L580.3242 273.479 Q580.293 272.9165 579.918 272.5883 Q579.543 272.2602 578.8555 272.2602 Q578.3086 272.2602 577.9961 272.5102 Q577.6992 272.7602 577.6992 273.0571 Q577.6992 273.354 577.9648 273.5727 Q578.1367 273.729 578.8711 274.0415 Q580.0898 274.5727 580.4023 274.8696 Q580.918 275.3696 580.918 276.0571 Q580.918 276.5258 580.6211 276.979 Q580.3398 277.4165 579.7617 277.6821 Q579.1836 277.9477 578.3867 277.9477 Q577.3086 277.9477 576.5586 277.4165 Q575.793 276.8852 575.8398 275.6821 ZM583.7148 269.0727 Q584.6523 271.0883 584.6523 273.2133 Q584.6523 274.6352 584.2773 275.854 Q583.9023 277.0727 583.1367 278.2758 Q582.6367 279.0727 581.5273 280.3383 L580.6992 280.3383 Q581.3867 279.5883 582.1523 278.2602 Q582.918 276.9321 583.2617 275.6508 Q583.6055 274.3696 583.6055 273.0727 Q583.6055 271.1352 582.9336 269.0727 L583.7148 269.0727 Z" clip-path="url(#clipPath3)" stroke-linecap="square" stroke="none"/>
    </g>
    <g fill="url(#linearGradient2)" text-rendering="geometricPrecision" shape-rendering="geometricPrecision" transform="matrix(1,0,0,1,-473,-227)" stroke="url(#linearGradient2)">
      <path d="M557 347.2895 L601.5 373.1447 L557 399 L512.5 373.1447 Z" stroke="none" clip-path="url(#clipPath2)"/>
    </g>
    <g text-rendering="geometricPrecision" stroke-miterlimit="1.45" shape-rendering="geometricPrecision" transform="matrix(1,0,0,1,-473,-227)" stroke-linecap="butt">
      <path fill="none" d="M557 347.2895 L601.5 373.1447 L557 399 L512.5 373.1447 Z" clip-path="url(#clipPath2)"/>
      <text x="550.0542" font-size="10px" y="377.073" clip-path="url(#clipPath2)" font-family="sans-serif" stroke="none" xml:space="preserve">RA</text>
    </g>
    <g fill="url(#linearGradient3)" text-rendering="geometricPrecision" shape-rendering="geometricPrecision" transform="matrix(1,0,0,1,-473,-227)" stroke="url(#linearGradient3)">
      <path d="M488.2928 440.2895 L625.7072 440.2895 L625.7072 503.7105 L488.2928 503.7105 Z" stroke="none" clip-path="url(#clipPath2)"/>
    </g>
    <g text-rendering="geometricPrecision" stroke-miterlimit="1.45" shape-rendering="geometricPrecision" transform="matrix(1,0,0,1,-473,-227)" stroke-linecap="butt">
      <path fill="none" d="M488.2928 440.2895 L625.7072 440.2895 L625.7072 503.7105 L488.2928 503.7105 Z" clip-path="url(#clipPath2)"/>
      <path stroke-miterlimit="10" d="M542.5889 474.7363 Q542.042 475.2207 541.5264 475.4395 Q541.0264 475.6582 540.4326 475.6582 Q539.5732 475.6582 539.042 475.1582 Q538.5264 474.6426 538.5264 473.8457 Q538.5264 473.3301 538.7607 472.9395 Q538.9951 472.5332 539.3857 472.2988 Q539.7764 472.0488 540.3545 471.9395 Q540.7139 471.8613 541.7139 471.8301 Q542.7139 471.7832 543.1357 471.6113 Q543.2607 471.1738 543.2607 470.8926 Q543.2607 470.5176 542.9951 470.3145 Q542.6201 470.0176 541.917 470.0176 Q541.2451 470.0176 540.8232 470.3145 Q540.4014 470.6113 540.1982 471.1582 L539.1357 471.0645 Q539.4639 470.1426 540.167 469.6582 Q540.8857 469.1582 541.9639 469.1582 Q543.1201 469.1582 543.792 469.7051 Q544.3076 470.1113 544.3076 470.7676 Q544.3076 471.2676 544.167 471.9238 L543.8232 473.4707 Q543.6514 474.2051 543.6514 474.6738 Q543.6514 474.9707 543.792 475.5176 L542.7139 475.5176 Q542.6201 475.2051 542.5889 474.7363 ZM542.9795 472.3613 Q542.7607 472.4551 542.4951 472.502 Q542.2451 472.5488 541.6514 472.5957 Q540.7295 472.6738 540.3389 472.8145 Q539.9639 472.9395 539.7607 473.2207 Q539.5732 473.4863 539.5732 473.8145 Q539.5732 474.2676 539.8857 474.5488 Q540.1982 474.8301 540.7607 474.8301 Q541.292 474.8301 541.7764 474.5645 Q542.2607 474.2832 542.542 473.7832 Q542.8232 473.2832 542.9795 472.3613 ZM552.6904 473.252 L553.7529 473.3613 Q553.3623 474.5332 552.6279 475.0957 Q551.8936 475.6582 550.9561 475.6582 Q549.9404 475.6582 549.2998 475.002 Q548.6748 474.3457 548.6748 473.1738 Q548.6748 472.1426 549.0811 471.1582 Q549.4873 470.1738 550.2373 469.6738 Q550.9873 469.1582 551.9561 469.1582 Q552.9561 469.1582 553.5342 469.7207 Q554.1279 470.2832 554.1279 471.2207 L553.0967 471.2832 Q553.0811 470.6895 552.7373 470.3613 Q552.4092 470.0332 551.8623 470.0332 Q551.2217 470.0332 550.7529 470.4395 Q550.2842 470.8301 550.0186 471.6582 Q549.7529 472.4863 549.7529 473.2363 Q549.7529 474.0332 550.0967 474.4395 Q550.4561 474.8301 550.9717 474.8301 Q551.4873 474.8301 551.9561 474.4395 Q552.4248 474.0488 552.6904 473.252 ZM554.3154 475.5176 L556.1123 466.9238 L557.1748 466.9238 L555.3779 475.5176 L554.3154 475.5176 ZM561.2627 474.7363 Q560.7158 475.2207 560.2002 475.4395 Q559.7002 475.6582 559.1064 475.6582 Q558.2471 475.6582 557.7158 475.1582 Q557.2002 474.6426 557.2002 473.8457 Q557.2002 473.3301 557.4346 472.9395 Q557.6689 472.5332 558.0596 472.2988 Q558.4502 472.0488 559.0283 471.9395 Q559.3877 471.8613 560.3877 471.8301 Q561.3877 471.7832 561.8096 471.6113 Q561.9346 471.1738 561.9346 470.8926 Q561.9346 470.5176 561.6689 470.3145 Q561.2939 470.0176 560.5908 470.0176 Q559.9189 470.0176 559.4971 470.3145 Q559.0752 470.6113 558.8721 471.1582 L557.8096 471.0645 Q558.1377 470.1426 558.8408 469.6582 Q559.5596 469.1582 560.6377 469.1582 Q561.7939 469.1582 562.4658 469.7051 Q562.9814 470.1113 562.9814 470.7676 Q562.9814 471.2676 562.8408 471.9238 L562.4971 473.4707 Q562.3252 474.2051 562.3252 474.6738 Q562.3252 474.9707 562.4658 475.5176 L561.3877 475.5176 Q561.2939 475.2051 561.2627 474.7363 ZM561.6533 472.3613 Q561.4346 472.4551 561.1689 472.502 Q560.9189 472.5488 560.3252 472.5957 Q559.4033 472.6738 559.0127 472.8145 Q558.6377 472.9395 558.4346 473.2207 Q558.2471 473.4863 558.2471 473.8145 Q558.2471 474.2676 558.5596 474.5488 Q558.8721 474.8301 559.4346 474.8301 Q559.9658 474.8301 560.4502 474.5645 Q560.9346 474.2832 561.2158 473.7832 Q561.4971 473.2832 561.6533 472.3613 ZM565.249 468.127 L565.499 466.9238 L566.5615 466.9238 L566.2959 468.127 L565.249 468.127 ZM563.7021 475.5176 L564.999 469.2988 L566.0615 469.2988 L564.7646 475.5176 L563.7021 475.5176 ZM566.3994 475.5176 L567.6963 469.2988 L568.7588 469.2988 L568.54 470.3145 Q569.1338 469.6582 569.6025 469.4082 Q570.0713 469.1582 570.6182 469.1582 Q571.1963 469.1582 571.5869 469.4707 Q571.9775 469.7676 572.1025 470.3145 Q572.5713 469.7363 573.0869 469.4551 Q573.6182 469.1582 574.1963 469.1582 Q574.9775 469.1582 575.3682 469.5332 Q575.7588 469.8926 575.7588 470.5645 Q575.7588 470.8457 575.6182 471.502 L574.79 475.5176 L573.7275 475.5176 L574.5869 471.4082 Q574.6963 470.8926 574.6963 470.6895 Q574.6963 470.377 574.4932 470.2051 Q574.3057 470.0332 573.9619 470.0332 Q573.4775 470.0332 572.9775 470.3145 Q572.4932 470.5957 572.2119 471.0645 Q571.9463 471.5332 571.7432 472.502 L571.1182 475.5176 L570.0557 475.5176 L570.9307 471.3145 Q571.0244 470.8926 571.0244 470.7051 Q571.0244 470.4082 570.8369 470.2207 Q570.6494 470.0332 570.3369 470.0332 Q569.8838 470.0332 569.3838 470.3145 Q568.8994 470.5957 568.5869 471.1113 Q568.2744 471.627 568.0713 472.5801 L567.4619 475.5176 L566.3994 475.5176 Z" clip-path="url(#clipPath4)" stroke-linecap="square" stroke="none"/>
    </g>
    <g fill="url(#linearGradient4)" text-rendering="geometricPrecision" shape-rendering="geometricPrecision" transform="matrix(1,0,0,1,-473,-227)" stroke="url(#linearGradient4)">
      <path d="M777.2928 440.2895 L914.7072 440.2895 L914.7072 503.7105 L777.2928 503.7105 Z" stroke="none" clip-path="url(#clipPath2)"/>
    </g>
    <g text-rendering="geometricPrecision" stroke-miterlimit="1.45" shape-rendering="geometricPrecision" transform="matrix(1,0,0,1,-473,-227)" stroke-linecap="butt">
      <path fill="none" d="M777.2928 440.2895 L914.7072 440.2895 L914.7072 503.7105 L777.2928 503.7105 Z" clip-path="url(#clipPath2)"/>
      <path stroke-miterlimit="10" d="M807.7314 475.5176 L809.0283 469.2988 L809.9658 469.2988 L809.7002 470.5645 Q810.1846 469.8457 810.6377 469.502 Q811.1064 469.1582 811.5752 469.1582 Q811.9033 469.1582 812.3564 469.377 L811.9189 470.3613 Q811.6533 470.1738 811.3252 470.1738 Q810.7627 470.1738 810.1689 470.7988 Q809.5908 471.4082 809.2627 473.0176 L808.7314 475.5176 L807.7314 475.5176 ZM816.29 473.4082 L817.3213 473.502 Q817.1025 474.2676 816.29 474.9707 Q815.4932 475.6582 814.3994 475.6582 Q813.6963 475.6582 813.1182 475.3457 Q812.54 475.0176 812.2432 474.4082 Q811.9463 473.7988 811.9463 473.0176 Q811.9463 472.002 812.415 471.0488 Q812.8838 470.0801 813.6338 469.627 Q814.3838 469.1582 815.2588 469.1582 Q816.3682 469.1582 817.0244 469.8457 Q817.6963 470.5332 817.6963 471.7363 Q817.6963 472.1895 817.6182 472.6738 L813.04 472.6738 Q813.0088 472.8457 813.0088 473.002 Q813.0088 473.877 813.415 474.3301 Q813.8213 474.7832 814.3994 474.7832 Q814.9463 474.7832 815.4619 474.4395 Q815.9932 474.0801 816.29 473.4082 ZM813.2119 471.8613 L816.6963 471.8613 Q816.7119 471.6895 816.7119 471.627 Q816.7119 470.8301 816.3057 470.4082 Q815.915 469.9863 815.29 469.9863 Q814.6025 469.9863 814.04 470.4551 Q813.4775 470.9238 813.2119 471.8613 ZM819.5732 475.5176 L818.9326 469.2988 L819.9482 469.2988 L820.2295 472.0957 L820.3389 473.6582 Q820.3545 473.8301 820.3701 474.3613 Q820.5576 473.7676 820.667 473.4551 Q820.792 473.127 821.0732 472.5332 L822.542 469.2988 L823.6982 469.2988 L823.9014 472.4082 Q823.9482 473.1113 823.9639 474.2988 Q824.2607 473.5176 824.917 472.1113 L826.2607 469.2988 L827.3232 469.2988 L824.2764 475.5176 L823.1826 475.5176 L822.9482 471.8613 Q822.917 471.5332 822.9014 470.5488 Q822.667 471.1738 822.3389 471.8926 L820.6982 475.5176 L819.5732 475.5176 ZM827.0674 475.5176 L828.3643 469.2988 L829.3018 469.2988 L829.0361 470.5645 Q829.5205 469.8457 829.9736 469.502 Q830.4424 469.1582 830.9111 469.1582 Q831.2393 469.1582 831.6924 469.377 L831.2549 470.3613 Q830.9893 470.1738 830.6611 470.1738 Q830.0986 470.1738 829.5049 470.7988 Q828.9268 471.4082 828.5986 473.0176 L828.0674 475.5176 L827.0674 475.5176 ZM832.5635 468.127 L832.8135 466.9238 L833.876 466.9238 L833.6104 468.127 L832.5635 468.127 ZM831.0166 475.5176 L832.3135 469.2988 L833.376 469.2988 L832.0791 475.5176 L831.0166 475.5176 ZM836.1982 474.6582 L836.0264 475.5176 Q835.6514 475.627 835.292 475.627 Q834.6514 475.627 834.2764 475.3145 Q833.9951 475.0801 833.9951 474.6738 Q833.9951 474.4707 834.1514 473.7363 L834.9014 470.1113 L834.0732 470.1113 L834.2451 469.2988 L835.0732 469.2988 L835.4014 467.7676 L836.6045 467.0332 L836.1357 469.2988 L837.1826 469.2988 L837.0107 470.1113 L835.9639 470.1113 L835.2451 473.5488 Q835.1045 474.2051 835.1045 474.3457 Q835.1045 474.5332 835.2139 474.627 Q835.3232 474.7207 835.5732 474.7207 Q835.9326 474.7207 836.1982 474.6582 ZM839.5322 474.6582 L839.3604 475.5176 Q838.9854 475.627 838.626 475.627 Q837.9854 475.627 837.6104 475.3145 Q837.3291 475.0801 837.3291 474.6738 Q837.3291 474.4707 837.4854 473.7363 L838.2354 470.1113 L837.4072 470.1113 L837.5791 469.2988 L838.4072 469.2988 L838.7354 467.7676 L839.9385 467.0332 L839.4697 469.2988 L840.5166 469.2988 L840.3447 470.1113 L839.2979 470.1113 L838.5791 473.5488 Q838.4385 474.2051 838.4385 474.3457 Q838.4385 474.5332 838.5479 474.627 Q838.6572 474.7207 838.9072 474.7207 Q839.2666 474.7207 839.5322 474.6582 ZM844.96 473.4082 L845.9912 473.502 Q845.7725 474.2676 844.96 474.9707 Q844.1631 475.6582 843.0693 475.6582 Q842.3662 475.6582 841.7881 475.3457 Q841.21 475.0176 840.9131 474.4082 Q840.6162 473.7988 840.6162 473.0176 Q840.6162 472.002 841.085 471.0488 Q841.5537 470.0801 842.3037 469.627 Q843.0537 469.1582 843.9287 469.1582 Q845.0381 469.1582 845.6943 469.8457 Q846.3662 470.5332 846.3662 471.7363 Q846.3662 472.1895 846.2881 472.6738 L841.71 472.6738 Q841.6787 472.8457 841.6787 473.002 Q841.6787 473.877 842.085 474.3301 Q842.4912 474.7832 843.0693 474.7832 Q843.6162 474.7832 844.1318 474.4395 Q844.6631 474.0801 844.96 473.4082 ZM841.8818 471.8613 L845.3662 471.8613 Q845.3818 471.6895 845.3818 471.627 Q845.3818 470.8301 844.9756 470.4082 Q844.585 469.9863 843.96 469.9863 Q843.2725 469.9863 842.71 470.4551 Q842.1475 470.9238 841.8818 471.8613 ZM847.0713 475.5176 L848.3682 469.2988 L849.3213 469.2988 L849.1025 470.377 Q849.7275 469.7363 850.2744 469.4551 Q850.8213 469.1582 851.3838 469.1582 Q852.1338 469.1582 852.5557 469.5645 Q852.9932 469.9707 852.9932 470.6582 Q852.9932 471.002 852.8525 471.752 L852.0557 475.5176 L850.9932 475.5176 L851.8213 471.5801 Q851.9463 471.002 851.9463 470.7207 Q851.9463 470.4082 851.7275 470.2207 Q851.5244 470.0332 851.1182 470.0332 Q850.3057 470.0332 849.665 470.627 Q849.0244 471.2051 848.7275 472.627 L848.1182 475.5176 L847.0713 475.5176 ZM861.3604 473.252 L862.4229 473.3613 Q862.0322 474.5332 861.2979 475.0957 Q860.5635 475.6582 859.626 475.6582 Q858.6104 475.6582 857.9697 475.002 Q857.3447 474.3457 857.3447 473.1738 Q857.3447 472.1426 857.751 471.1582 Q858.1572 470.1738 858.9072 469.6738 Q859.6572 469.1582 860.626 469.1582 Q861.626 469.1582 862.2041 469.7207 Q862.7979 470.2832 862.7979 471.2207 L861.7666 471.2832 Q861.751 470.6895 861.4072 470.3613 Q861.0791 470.0332 860.5322 470.0332 Q859.8916 470.0332 859.4229 470.4395 Q858.9541 470.8301 858.6885 471.6582 Q858.4229 472.4863 858.4229 473.2363 Q858.4229 474.0332 858.7666 474.4395 Q859.126 474.8301 859.6416 474.8301 Q860.1572 474.8301 860.626 474.4395 Q861.0947 474.0488 861.3604 473.252 ZM862.9854 475.5176 L864.7822 466.9238 L865.8447 466.9238 L864.0479 475.5176 L862.9854 475.5176 ZM869.9326 474.7363 Q869.3857 475.2207 868.8701 475.4395 Q868.3701 475.6582 867.7764 475.6582 Q866.917 475.6582 866.3857 475.1582 Q865.8701 474.6426 865.8701 473.8457 Q865.8701 473.3301 866.1045 472.9395 Q866.3389 472.5332 866.7295 472.2988 Q867.1201 472.0488 867.6982 471.9395 Q868.0576 471.8613 869.0576 471.8301 Q870.0576 471.7832 870.4795 471.6113 Q870.6045 471.1738 870.6045 470.8926 Q870.6045 470.5176 870.3389 470.3145 Q869.9639 470.0176 869.2607 470.0176 Q868.5889 470.0176 868.167 470.3145 Q867.7451 470.6113 867.542 471.1582 L866.4795 471.0645 Q866.8076 470.1426 867.5107 469.6582 Q868.2295 469.1582 869.3076 469.1582 Q870.4639 469.1582 871.1357 469.7051 Q871.6514 470.1113 871.6514 470.7676 Q871.6514 471.2676 871.5107 471.9238 L871.167 473.4707 Q870.9951 474.2051 870.9951 474.6738 Q870.9951 474.9707 871.1357 475.5176 L870.0576 475.5176 Q869.9639 475.2051 869.9326 474.7363 ZM870.3232 472.3613 Q870.1045 472.4551 869.8389 472.502 Q869.5889 472.5488 868.9951 472.5957 Q868.0732 472.6738 867.6826 472.8145 Q867.3076 472.9395 867.1045 473.2207 Q866.917 473.4863 866.917 473.8145 Q866.917 474.2676 867.2295 474.5488 Q867.542 474.8301 868.1045 474.8301 Q868.6357 474.8301 869.1201 474.5645 Q869.6045 474.2832 869.8857 473.7832 Q870.167 473.2832 870.3232 472.3613 ZM873.9189 468.127 L874.1689 466.9238 L875.2314 466.9238 L874.9658 468.127 L873.9189 468.127 ZM872.3721 475.5176 L873.6689 469.2988 L874.7314 469.2988 L873.4346 475.5176 L872.3721 475.5176 ZM875.0693 475.5176 L876.3662 469.2988 L877.4287 469.2988 L877.21 470.3145 Q877.8037 469.6582 878.2725 469.4082 Q878.7412 469.1582 879.2881 469.1582 Q879.8662 469.1582 880.2568 469.4707 Q880.6475 469.7676 880.7725 470.3145 Q881.2412 469.7363 881.7568 469.4551 Q882.2881 469.1582 882.8662 469.1582 Q883.6475 469.1582 884.0381 469.5332 Q884.4287 469.8926 884.4287 470.5645 Q884.4287 470.8457 884.2881 471.502 L883.46 475.5176 L882.3975 475.5176 L883.2568 471.4082 Q883.3662 470.8926 883.3662 470.6895 Q883.3662 470.377 883.1631 470.2051 Q882.9756 470.0332 882.6318 470.0332 Q882.1475 470.0332 881.6475 470.3145 Q881.1631 470.5957 880.8818 471.0645 Q880.6162 471.5332 880.4131 472.502 L879.7881 475.5176 L878.7256 475.5176 L879.6006 471.3145 Q879.6943 470.8926 879.6943 470.7051 Q879.6943 470.4082 879.5068 470.2207 Q879.3193 470.0332 879.0068 470.0332 Q878.5537 470.0332 878.0537 470.3145 Q877.5693 470.5957 877.2568 471.1113 Q876.9443 471.627 876.7412 472.5801 L876.1318 475.5176 L875.0693 475.5176 Z" clip-path="url(#clipPath5)" stroke-linecap="square" stroke="none"/>
    </g>
    <g fill="url(#linearGradient5)" text-rendering="geometricPrecision" shape-rendering="geometricPrecision" transform="matrix(1,0,0,1,-473,-227)" stroke="url(#linearGradient5)">
      <path d="M846 347.2895 L890.5 373.1447 L846 399 L801.5 373.1447 Z" stroke="none" clip-path="url(#clipPath2)"/>
    </g>
    <g text-rendering="geometricPrecision" stroke-miterlimit="1.45" shape-rendering="geometricPrecision" transform="matrix(1,0,0,1,-473,-227)" stroke-linecap="butt">
      <path fill="none" d="M846 347.2895 L890.5 373.1447 L846 399 L801.5 373.1447 Z" clip-path="url(#clipPath2)"/>
      <text x="839.0542" font-size="10px" y="377.073" clip-path="url(#clipPath2)" font-family="sans-serif" stroke="none" xml:space="preserve">RA</text>
    </g>
    <g fill="url(#linearGradient6)" text-rendering="geometricPrecision" shape-rendering="geometricPrecision" transform="matrix(1,0,0,1,-473,-227)" stroke="url(#linearGradient6)">
      <path d="M701.5 446.1447 L746 472 L701.5 497.8553 L657 472 Z" stroke="none" clip-path="url(#clipPath2)"/>
    </g>
    <g text-rendering="geometricPrecision" stroke-miterlimit="1.45" shape-rendering="geometricPrecision" transform="matrix(1,0,0,1,-473,-227)" stroke-linecap="butt">
      <path fill="none" d="M701.5 446.1447 L746 472 L701.5 497.8553 L657 472 Z" clip-path="url(#clipPath2)"/>
      <text x="694" font-size="10px" y="475.9282" clip-path="url(#clipPath2)" font-family="sans-serif" stroke="none" xml:space="preserve">MA</text>
    </g>
    <g text-rendering="geometricPrecision" stroke-miterlimit="1.45" shape-rendering="geometricPrecision" transform="matrix(1,0,0,1,-473,-227)" stroke-linecap="butt">
      <path fill="none" d="M557 306.0023 L557 339.2779" clip-path="url(#clipPath2)"/>
    </g>
    <g text-rendering="geometricPrecision" stroke-miterlimit="1.45" shape-rendering="geometricPrecision" transform="matrix(1,0,0,1,-473,-227)" stroke-linecap="butt">
      <path d="M557 347.2779 L562 335.2779 L557 338.2779 L552 335.2779 Z" stroke="none" clip-path="url(#clipPath2)"/>
      <path fill="none" d="M557 398.9688 L557 432.2985" clip-path="url(#clipPath2)"/>
      <path d="M557 440.2985 L562 428.2985 L557 431.2985 L552 428.2985 Z" clip-path="url(#clipPath2)" stroke="none"/>
      <path fill="none" d="M625.6869 274.2895 L846 274.2895 L846 339.3207" clip-path="url(#clipPath2)"/>
      <path d="M846 347.3207 L851 335.3207 L846 338.3207 L841 335.3207 Z" clip-path="url(#clipPath2)" stroke="none"/>
      <path fill="none" d="M846 398.9688 L846 432.2985" clip-path="url(#clipPath2)"/>
      <path d="M846 440.2985 L851 428.2985 L846 431.2985 L841 428.2985 Z" clip-path="url(#clipPath2)" stroke="none"/>
      <path fill="none" d="M625.6869 472 L648.9672 472" clip-path="url(#clipPath2)"/>
      <path d="M656.9672 472 L644.9672 467 L647.9672 472 L644.9672 477 Z" clip-path="url(#clipPath2)" stroke="none"/>
      <path fill="none" d="M745.986 472 L769.2892 472" clip-path="url(#clipPath2)"/>
      <path d="M777.2892 472 L765.2892 467 L768.2892 472 L765.2892 477 Z" clip-path="url(#clipPath2)" stroke="none"/>
    </g>
  </g>
</svg>
