<?xml version="1.0" encoding="UTF-8"?><svg xmlns="http://www.w3.org/2000/svg" xmlns:xlink="http://www.w3.org/1999/xlink" fill-opacity="1" color-rendering="auto" color-interpolation="auto" text-rendering="auto" stroke="black" stroke-linecap="square" width="329" stroke-miterlimit="10" shape-rendering="auto" stroke-opacity="1" fill="black" stroke-dasharray="none" font-weight="normal" stroke-width="1" height="310" font-family="'Dialog'" font-style="normal" stroke-linejoin="miter" font-size="12px" stroke-dashoffset="0" image-rendering="auto">
  <!--Generated by ySVG 2.5-->
  <defs id="genericDefs"/>
  <g>
    <defs id="defs1">
      <clipPath clipPathUnits="userSpaceOnUse" id="clipPath1">
        <path d="M0 0 L329 0 L329 310 L0 310 L0 0 Z"/>
      </clipPath>
      <clipPath clipPathUnits="userSpaceOnUse" id="clipPath2">
        <path d="M5 -15 L334 -15 L334 295 L5 295 L5 -15 Z"/>
      </clipPath>
    </defs>
    <g fill="white" text-rendering="geometricPrecision" shape-rendering="geometricPrecision" transform="translate(-5,15)" stroke="white">
      <rect x="5" width="329" height="310" y="-15" clip-path="url(#clipPath2)" stroke="none"/>
    </g>
    <g id="y.node.0">
      <a target="_blank" xlink:type="simple" xlink:href="urn:string:md5:EE5CB5AFB9B9560C689EA19577E3EC53" xlink:show="new">
        <g fill="rgb(255,204,0)" text-rendering="geometricPrecision" shape-rendering="geometricPrecision" transform="matrix(1,0,0,1,-5,15)" stroke="rgb(255,204,0)">
          <rect x="25.3379" y="0" width="288.1543" rx="4" ry="4" height="30" stroke="none"/>
        </g>
        <g text-rendering="geometricPrecision" stroke-miterlimit="1.45" shape-rendering="geometricPrecision" transform="matrix(1,0,0,1,-5,15)" stroke-linecap="butt">
          <rect x="25.3379" y="0" fill="none" width="288.1543" rx="4" ry="4" height="30"/>
        </g>
        <g>
          <g text-rendering="geometricPrecision" stroke-miterlimit="1.45" shape-rendering="geometricPrecision" font-family="sans-serif" transform="matrix(1,0,0,1,-5,15)" stroke-linecap="butt">
            <text x="32.3379" xml:space="preserve" y="19.7139" stroke="none">Sextus Pompeius and Sextus Apuleius are consuls.</text>
          </g>
        </g>
      </a>
    </g>
    <g id="y.node.1">
      <a target="_blank" xlink:type="simple" xlink:href="urn:string:md5:67D521C74636DAE30068C75EA707AAD7" xlink:show="new">
        <g fill="rgb(255,204,0)" text-rendering="geometricPrecision" shape-rendering="geometricPrecision" transform="matrix(1,0,0,1,-5,15)" stroke="rgb(255,204,0)">
          <rect x="32.0176" y="50" width="274.7949" rx="4" ry="4" height="30" stroke="none"/>
        </g>
        <g text-rendering="geometricPrecision" stroke-miterlimit="1.45" shape-rendering="geometricPrecision" transform="matrix(1,0,0,1,-5,15)" stroke-linecap="butt">
          <rect x="32.0176" y="50" fill="none" width="274.7949" rx="4" ry="4" height="30"/>
        </g>
        <g>
          <g text-rendering="geometricPrecision" stroke-miterlimit="1.45" shape-rendering="geometricPrecision" font-family="sans-serif" transform="matrix(1,0,0,1,-5,15)" stroke-linecap="butt">
            <text x="39.0176" xml:space="preserve" y="69.7139" stroke="none">Drusus Caesar and Caius Norbanus are consuls.</text>
          </g>
        </g>
      </a>
    </g>
    <g id="y.node.2">
      <a target="_blank" xlink:type="simple" xlink:href="urn:string:md5:2C81941D7092CBE8E568F80369F4B1DC" xlink:show="new">
        <g fill="rgb(255,204,0)" text-rendering="geometricPrecision" shape-rendering="geometricPrecision" transform="matrix(1,0,0,1,-5,15)" stroke="rgb(255,204,0)">
          <rect x="20" y="100" width="298.8301" rx="4" ry="4" height="30" stroke="none"/>
        </g>
        <g text-rendering="geometricPrecision" stroke-miterlimit="1.45" shape-rendering="geometricPrecision" transform="matrix(1,0,0,1,-5,15)" stroke-linecap="butt">
          <rect x="20" y="100" fill="none" width="298.8301" rx="4" ry="4" height="30"/>
        </g>
        <g>
          <g text-rendering="geometricPrecision" stroke-miterlimit="1.45" shape-rendering="geometricPrecision" font-family="sans-serif" transform="matrix(1,0,0,1,-5,15)" stroke-linecap="butt">
            <text x="27" xml:space="preserve" y="119.7139" stroke="none">Sisenna Statilius Taurus and Lucius Libo are consuls.</text>
          </g>
        </g>
      </a>
    </g>
    <g id="y.node.3">
      <a target="_blank" xlink:type="simple" xlink:href="urn:string:md5:81E1F20AE5F890C5B15C43CA9E6B1509" xlink:show="new">
        <g fill="rgb(255,204,0)" text-rendering="geometricPrecision" shape-rendering="geometricPrecision" transform="matrix(1,0,0,1,-5,15)" stroke="rgb(255,204,0)">
          <rect x="61.3702" y="150" width="216.0898" rx="4" ry="4" height="30" stroke="none"/>
        </g>
        <g text-rendering="geometricPrecision" stroke-miterlimit="1.45" shape-rendering="geometricPrecision" transform="matrix(1,0,0,1,-5,15)" stroke-linecap="butt">
          <rect x="61.3702" y="150" fill="none" width="216.0898" rx="4" ry="4" height="30"/>
        </g>
        <g>
          <g text-rendering="geometricPrecision" stroke-miterlimit="1.45" shape-rendering="geometricPrecision" font-family="sans-serif" transform="matrix(1,0,0,1,-5,15)" stroke-linecap="butt">
            <text x="68.3702" xml:space="preserve" y="169.7139" stroke="none">Tiberius and Germanicus are consuls.</text>
          </g>
        </g>
      </a>
    </g>
    <g id="y.node.4">
      <a target="_blank" xlink:type="simple" xlink:href="urn:string:md5:28CA2655630DC547FFB4D6546EBC709F" xlink:show="new">
        <g fill="rgb(255,204,0)" text-rendering="geometricPrecision" shape-rendering="geometricPrecision" transform="matrix(1,0,0,1,-5,15)" stroke="rgb(255,204,0)">
          <rect x="29.0118" y="200" width="280.8066" rx="4" ry="4" height="30" stroke="none"/>
        </g>
        <g text-rendering="geometricPrecision" stroke-miterlimit="1.45" shape-rendering="geometricPrecision" transform="matrix(1,0,0,1,-5,15)" stroke-linecap="butt">
          <rect x="29.0118" y="200" fill="none" width="280.8066" rx="4" ry="4" height="30"/>
        </g>
        <g>
          <g text-rendering="geometricPrecision" stroke-miterlimit="1.45" shape-rendering="geometricPrecision" font-family="sans-serif" transform="matrix(1,0,0,1,-5,15)" stroke-linecap="butt">
            <text x="36.0118" xml:space="preserve" y="219.7139" stroke="none">Marcus Silanus and Lucius Norbanus are consuls.</text>
          </g>
        </g>
      </a>
    </g>
    <g id="y.node.5">
      <a target="_blank" xlink:type="simple" xlink:href="urn:string:md5:2633F7C138B2E2EDC620568CCD98A402" xlink:show="new">
        <g fill="rgb(255,204,0)" text-rendering="geometricPrecision" shape-rendering="geometricPrecision" transform="matrix(1,0,0,1,-5,15)" stroke="rgb(255,204,0)">
          <rect x="33.3565" y="250" width="272.1172" rx="4" ry="4" height="30" stroke="none"/>
        </g>
        <g text-rendering="geometricPrecision" stroke-miterlimit="1.45" shape-rendering="geometricPrecision" transform="matrix(1,0,0,1,-5,15)" stroke-linecap="butt">
          <rect x="33.3565" y="250" fill="none" width="272.1172" rx="4" ry="4" height="30"/>
        </g>
        <g>
          <g text-rendering="geometricPrecision" stroke-miterlimit="1.45" shape-rendering="geometricPrecision" font-family="sans-serif" transform="matrix(1,0,0,1,-5,15)" stroke-linecap="butt">
            <text x="40.3565" xml:space="preserve" y="269.7139" stroke="none">Marcus Valerius and Caius Aurelius are consuls.</text>
          </g>
        </g>
      </a>
    </g>
    <g id="y.edge.0">
      <g text-rendering="geometricPrecision" stroke-miterlimit="1.45" shape-rendering="geometricPrecision" transform="matrix(1,0,0,1,-5,15)" stroke-linecap="butt">
        <path fill="none" d="M169.4151 30 L169.4151 41.9609"/>
        <path d="M169.4151 49.9609 L174.4151 37.9609 L169.4151 40.9609 L164.4151 37.9609 Z" stroke="none"/>
      </g>
    </g>
    <g id="y.edge.1">
      <g text-rendering="geometricPrecision" stroke-miterlimit="1.45" shape-rendering="geometricPrecision" transform="matrix(1,0,0,1,-5,15)" stroke-linecap="butt">
        <path fill="none" d="M169.4151 80 L169.4151 91.9609"/>
        <path d="M169.4151 99.9609 L174.4151 87.9609 L169.4151 90.9609 L164.4151 87.9609 Z" stroke="none"/>
      </g>
    </g>
    <g id="y.edge.2">
      <g text-rendering="geometricPrecision" stroke-miterlimit="1.45" shape-rendering="geometricPrecision" transform="matrix(1,0,0,1,-5,15)" stroke-linecap="butt">
        <path fill="none" d="M169.4151 130 L169.4151 141.9609"/>
        <path d="M169.4151 149.9609 L174.4151 137.9609 L169.4151 140.9609 L164.4151 137.9609 Z" stroke="none"/>
      </g>
    </g>
    <g id="y.edge.3">
      <g text-rendering="geometricPrecision" stroke-miterlimit="1.45" shape-rendering="geometricPrecision" transform="matrix(1,0,0,1,-5,15)" stroke-linecap="butt">
        <path fill="none" d="M169.4151 180 L169.4151 191.9609"/>
        <path d="M169.4151 199.9609 L174.4151 187.9609 L169.4151 190.9609 L164.4151 187.9609 Z" stroke="none"/>
      </g>
    </g>
    <g id="y.edge.4">
      <g text-rendering="geometricPrecision" stroke-miterlimit="1.45" shape-rendering="geometricPrecision" transform="matrix(1,0,0,1,-5,15)" stroke-linecap="butt">
        <path fill="none" d="M169.4151 230 L169.4151 241.9609"/>
        <path d="M169.4151 249.9609 L174.4151 237.9609 L169.4151 240.9609 L164.4151 237.9609 Z" stroke="none"/>
      </g>
    </g>
  </g>
</svg>
