<?xml version="1.0" encoding="UTF-8"?><svg viewBox="0 0 1200 250" preserveAspectRatio="xMinYMin meet" xmlns="http://www.w3.org/2000/svg">
<style type="text/css">

.P { fill:pink; }
.T { fill:turquoise; }
.Y { fill:gold; }
.F { fill:tomato; }
.I { fill:indigo; }
.V { fill:violet; }
.N { fill:navy; }
.W { fill:steelblue; }
.L { fill:limegreen; }
.X { fill:red; }
.U { fill:teal; }
.Z { fill:orange; }

path {
	stroke:lightgrey; stroke-width:8;
}

g {
	fill:lightgrey;
}

</style>
<g transform="translate(50,150), rotate(-90)">
<g transform="translate(0,0)" class="U">
<path d="M5,0 v30"/>
<path d="M0,-5 h30"/>
<rect x="-20" y="-20" width="40" height="40"/>
</g>
<g transform="translate(50,0)" class="U">
<path d="M0,-5 h30"/>
<path d="M0,5 h-30"/>
<rect x="-20" y="-20" width="40" height="40"/>
</g>
<g transform="translate(100,0)" class="U">
<path d="M5,0 v30"/>
<path d="M0,5 h-30"/>
<rect x="-20" y="-20" width="40" height="40"/>
</g>
<g transform="translate(0,50)" class="U">
<path d="M-5,0 v-30"/>
<rect x="-20" y="-20" width="40" height="40"/>
</g>
<g transform="translate(50,50)" class="X">
<path d="M5,0 v30"/>
<rect x="-20" y="-20" width="40" height="40"/>
</g>
<g transform="translate(100,50)" class="U">
<path d="M-5,0 v-30"/>
<rect x="-20" y="-20" width="40" height="40"/>
</g>
<g transform="translate(0,100)" class="X">
<path d="M0,-5 h30"/>
<rect x="-20" y="-20" width="40" height="40"/>
</g>
<g transform="translate(50,100)" class="X">
<path d="M-5,0 v-30"/>
<path d="M5,0 v30"/>
<path d="M0,-5 h30"/>
<path d="M0,5 h-30"/>
<rect x="-20" y="-20" width="40" height="40"/>
</g>
<g transform="translate(100,100)" class="X">
<path d="M0,5 h-30"/>
<rect x="-20" y="-20" width="40" height="40"/>
</g>
<g transform="translate(0,150)" class="P">
<path d="M5,0 v30"/>
<rect x="-20" y="-20" width="40" height="40"/>
</g>
<g transform="translate(50,150)" class="X">
<path d="M-5,0 v-30"/>
<rect x="-20" y="-20" width="40" height="40"/>
</g>
<g transform="translate(100,150)" class="I">
<path d="M5,0 v30"/>
<rect x="-20" y="-20" width="40" height="40"/>
</g>
<g transform="translate(0,200)" class="P">
<path d="M-5,0 v-30"/>
<path d="M5,0 v30"/>
<path d="M0,-5 h30"/>
<rect x="-20" y="-20" width="40" height="40"/>
</g>
<g transform="translate(50,200)" class="P">
<path d="M5,0 v30"/>
<path d="M0,5 h-30"/>
<rect x="-20" y="-20" width="40" height="40"/>
</g>
<g transform="translate(100,200)" class="I">
<path d="M-5,0 v-30"/>
<path d="M5,0 v30"/>
<rect x="-20" y="-20" width="40" height="40"/>
</g>
<g transform="translate(0,250)" class="P">
<path d="M-5,0 v-30"/>
<path d="M0,-5 h30"/>
<rect x="-20" y="-20" width="40" height="40"/>
</g>
<g transform="translate(50,250)" class="P">
<path d="M-5,0 v-30"/>
<path d="M0,5 h-30"/>
<rect x="-20" y="-20" width="40" height="40"/>
</g>
<g transform="translate(100,250)" class="I">
<path d="M-5,0 v-30"/>
<path d="M5,0 v30"/>
<rect x="-20" y="-20" width="40" height="40"/>
</g>
<g transform="translate(0,300)" class="L">
<path d="M5,0 v30"/>
<path d="M0,-5 h30"/>
<rect x="-20" y="-20" width="40" height="40"/>
</g>
<g transform="translate(50,300)" class="L">
<path d="M0,5 h-30"/>
<rect x="-20" y="-20" width="40" height="40"/>
</g>
<g transform="translate(100,300)" class="I">
<path d="M-5,0 v-30"/>
<path d="M5,0 v30"/>
<rect x="-20" y="-20" width="40" height="40"/>
</g>
<g transform="translate(0,350)" class="L">
<path d="M-5,0 v-30"/>
<path d="M5,0 v30"/>
<rect x="-20" y="-20" width="40" height="40"/>
</g>
<g transform="translate(50,350)" class="N">
<path d="M5,0 v30"/>
<rect x="-20" y="-20" width="40" height="40"/>
</g>
<g transform="translate(100,350)" class="I">
<path d="M-5,0 v-30"/>
<rect x="-20" y="-20" width="40" height="40"/>
</g>
<g transform="translate(0,400)" class="L">
<path d="M-5,0 v-30"/>
<path d="M5,0 v30"/>
<rect x="-20" y="-20" width="40" height="40"/>
</g>
<g transform="translate(50,400)" class="N">
<path d="M-5,0 v-30"/>
<path d="M0,-5 h30"/>
<rect x="-20" y="-20" width="40" height="40"/>
</g>
<g transform="translate(100,400)" class="N">
<path d="M5,0 v30"/>
<path d="M0,5 h-30"/>
<rect x="-20" y="-20" width="40" height="40"/>
</g>
<g transform="translate(0,450)" class="L">
<path d="M-5,0 v-30"/>
<rect x="-20" y="-20" width="40" height="40"/>
</g>
<g transform="translate(50,450)" class="F">
<path d="M5,0 v30"/>
<rect x="-20" y="-20" width="40" height="40"/>
</g>
<g transform="translate(100,450)" class="N">
<path d="M-5,0 v-30"/>
<path d="M5,0 v30"/>
<rect x="-20" y="-20" width="40" height="40"/>
</g>
<g transform="translate(0,500)" class="F">
<path d="M0,-5 h30"/>
<rect x="-20" y="-20" width="40" height="40"/>
</g>
<g transform="translate(50,500)" class="F">
<path d="M-5,0 v-30"/>
<path d="M5,0 v30"/>
<path d="M0,5 h-30"/>
<rect x="-20" y="-20" width="40" height="40"/>
</g>
<g transform="translate(100,500)" class="N">
<path d="M-5,0 v-30"/>
<rect x="-20" y="-20" width="40" height="40"/>
</g>
<g transform="translate(0,550)" class="T">
<path d="M5,0 v30"/>
<rect x="-20" y="-20" width="40" height="40"/>
</g>
<g transform="translate(50,550)" class="F">
<path d="M-5,0 v-30"/>
<path d="M0,-5 h30"/>
<rect x="-20" y="-20" width="40" height="40"/>
</g>
<g transform="translate(100,550)" class="F">
<path d="M0,5 h-30"/>
<rect x="-20" y="-20" width="40" height="40"/>
</g>
<g transform="translate(0,600)" class="T">
<path d="M-5,0 v-30"/>
<path d="M5,0 v30"/>
<path d="M0,-5 h30"/>
<rect x="-20" y="-20" width="40" height="40"/>
</g>
<g transform="translate(50,600)" class="T">
<path d="M0,-5 h30"/>
<path d="M0,5 h-30"/>
<rect x="-20" y="-20" width="40" height="40"/>
</g>
<g transform="translate(100,600)" class="T">
<path d="M0,5 h-30"/>
<rect x="-20" y="-20" width="40" height="40"/>
</g>
<g transform="translate(0,650)" class="T">
<path d="M-5,0 v-30"/>
<rect x="-20" y="-20" width="40" height="40"/>
</g>
<g transform="translate(50,650)" class="W">
<path d="M5,0 v30"/>
<path d="M0,-5 h30"/>
<rect x="-20" y="-20" width="40" height="40"/>
</g>
<g transform="translate(100,650)" class="W">
<path d="M0,5 h-30"/>
<rect x="-20" y="-20" width="40" height="40"/>
</g>
<g transform="translate(0,700)" class="W">
<path d="M5,0 v30"/>
<path d="M0,-5 h30"/>
<rect x="-20" y="-20" width="40" height="40"/>
</g>
<g transform="translate(50,700)" class="W">
<path d="M-5,0 v-30"/>
<path d="M0,5 h-30"/>
<rect x="-20" y="-20" width="40" height="40"/>
</g>
<g transform="translate(100,700)" class="Y">
<path d="M5,0 v30"/>
<rect x="-20" y="-20" width="40" height="40"/>
</g>
<g transform="translate(0,750)" class="W">
<path d="M-5,0 v-30"/>
<rect x="-20" y="-20" width="40" height="40"/>
</g>
<g transform="translate(50,750)" class="Y">
<path d="M0,-5 h30"/>
<rect x="-20" y="-20" width="40" height="40"/>
</g>
<g transform="translate(100,750)" class="Y">
<path d="M-5,0 v-30"/>
<path d="M5,0 v30"/>
<path d="M0,5 h-30"/>
<rect x="-20" y="-20" width="40" height="40"/>
</g>
<g transform="translate(0,800)" class="Z">
<path d="M0,-5 h30"/>
<rect x="-20" y="-20" width="40" height="40"/>
</g>
<g transform="translate(50,800)" class="Z">
<path d="M5,0 v30"/>
<path d="M0,5 h-30"/>
<rect x="-20" y="-20" width="40" height="40"/>
</g>
<g transform="translate(100,800)" class="Y">
<path d="M-5,0 v-30"/>
<path d="M5,0 v30"/>
<rect x="-20" y="-20" width="40" height="40"/>
</g>
<g transform="translate(0,850)" class="V">
<path d="M5,0 v30"/>
<rect x="-20" y="-20" width="40" height="40"/>
</g>
<g transform="translate(50,850)" class="Z">
<path d="M-5,0 v-30"/>
<path d="M5,0 v30"/>
<rect x="-20" y="-20" width="40" height="40"/>
</g>
<g transform="translate(100,850)" class="Y">
<path d="M-5,0 v-30"/>
<rect x="-20" y="-20" width="40" height="40"/>
</g>
<g transform="translate(0,900)" class="V">
<path d="M-5,0 v-30"/>
<path d="M5,0 v30"/>
<rect x="-20" y="-20" width="40" height="40"/>
</g>
<g transform="translate(50,900)" class="Z">
<path d="M-5,0 v-30"/>
<path d="M0,-5 h30"/>
<rect x="-20" y="-20" width="40" height="40"/>
</g>
<g transform="translate(100,900)" class="Z">
<path d="M0,5 h-30"/>
<rect x="-20" y="-20" width="40" height="40"/>
</g>
<g transform="translate(0,950)" class="V">
<path d="M-5,0 v-30"/>
<path d="M0,-5 h30"/>
<rect x="-20" y="-20" width="40" height="40"/>
</g>
<g transform="translate(50,950)" class="V">
<path d="M0,-5 h30"/>
<path d="M0,5 h-30"/>
<rect x="-20" y="-20" width="40" height="40"/>
</g>
<g transform="translate(100,950)" class="V">
<path d="M0,5 h-30"/>
<rect x="-20" y="-20" width="40" height="40"/>
</g>
</g>
</svg>
